<svg xmlns="http://www.w3.org/2000/svg" viewBox="0 0 98 96" role="img" aria-label="GitHub">
  <path fill="#181717" d="M49 0C21.94 0 0 21.5 0 48c0 21.2 14.03 39.17 33.5 45.52 2.45.44 3.35-1.04 3.35-2.31 0-1.14-.04-4.16-.07-8.16-13.63 2.9-16.5-6.44-16.5-6.44-2.23-5.55-5.44-7.03-5.44-7.03-4.45-2.98.34-2.92.34-2.92 4.92.34 7.51 4.95 7.51 4.95 4.37 7.34 11.46 5.22 14.26 3.99.44-3.1 1.71-5.22 3.11-6.42-10.88-1.21-22.32-5.33-22.32-23.73 0-5.24 1.91-9.53 5.04-12.88-.51-1.21-2.18-6.09.48-12.7 0 0 4.11-1.29 13.47 4.92A47.37 47.37 0 0 1 49 23.17c4.16.02 8.36.55 12.27 1.62 9.35-6.21 13.45-4.92 13.45-4.92 2.67 6.61.99 11.49.49 12.7 3.14 3.35 5.03 7.64 5.03 12.88 0 18.45-11.46 22.5-22.38 23.69 1.76 1.49 3.33 4.43 3.33 8.92 0 6.44-.06 11.64-.06 13.22 0 1.28.88 2.78 3.37 2.31C83.98 87.16 98 69.19 98 48 98 21.5 76.06 0 49 0Z"/>
</svg>
